<svg id="SvgjsSvg1001" width="15" height="15" xmlns="http://www.w3.org/2000/svg" version="1.1" xmlns:xlink="http://www.w3.org/1999/xlink" xmlns:svgjs="http://svgjs.com/svgjs"><defs id="SvgjsDefs1002"></defs><g id="SvgjsG1008"><svg xmlns="http://www.w3.org/2000/svg" viewBox="0 0 512 512" width="15" height="15"><linearGradient id="a" x1="256.002" x2="255.998" y1="31.963" y2="480.037" gradientUnits="userSpaceOnUse"><stop offset="0" stop-color="#fd6700" class="svgShape stopColorfd6700-1"></stop><stop offset="1" stop-color="#ffce00" class="svgShape stopColorffce00-2"></stop></linearGradient><path fill="url(#a)" d="m448 96.001c.006-11.2207-2.938-22.2458-8.537-31.9698s-13.656-17.8052-23.363-23.4331c-9.707-5.628-20.723-8.605-31.944-8.6324-11.22-.0275-22.251 2.8955-31.986 8.4759-9.734 5.5804-17.831 13.622-23.477 23.3185s-8.644 20.7071-8.693 31.9276c-.049 11.2203 2.854 22.2563 8.415 32.0023 5.562 9.745 13.589 17.856 23.275 23.521-1.79 20.87-11.47 38.1-28.87 51.29-17.75 13.5-42.731 21.5-66.821 21.5s-49.07-8-66.82-21.5c-17.4-13.19-27.079-30.42-28.869-51.29 12.157-7.109 21.63-18.029 26.951-31.068 5.32-13.04 6.191-27.47 2.478-41.0548s-11.803-25.5655-23.017-34.0853-24.925-13.1031-39.008-13.0394-27.7513 4.7708-38.8874 13.3918c-11.1362 8.6209-19.1179 20.6743-22.7081 34.2921s-2.5884 28.0396 2.85 41.0306c5.4385 12.99 15.0099 23.824 27.231 30.823 2.08 40.87 21.1695 76.87 54.3095 102 20.79 15.76 46.49 26.69 73.49 31.59v75.52c-12.201 7.044-21.736 17.918-27.128 30.934-5.391 13.016-6.337 27.447-2.691 41.056 3.647 13.609 11.682 25.634 22.859 34.21 11.177 8.577 24.872 13.226 38.96 13.226 14.089 0 27.784-4.649 38.961-13.226 11.177-8.576 19.212-20.601 22.859-34.21 3.646-13.609 2.7-28.04-2.691-41.056-5.392-13.016-14.927-23.89-27.129-30.934v-75.52c27-4.9 52.701-15.83 73.491-31.59 33.14-25.13 52.229-61.13 54.309-102 9.778-5.598 17.904-13.678 23.558-23.423s8.635-20.81 8.643-32.077zm-320-32c6.329 0 12.515 1.8767 17.778 5.3929 5.262 3.5162 9.364 8.514 11.786 14.3612s3.055 12.2814 1.821 18.4889c-1.235 6.207-4.283 11.909-8.758 16.384-4.475 4.476-10.177 7.523-16.385 8.758-6.207 1.235-12.641.601-18.488-1.821-5.848-2.422-10.845-6.523-14.362-11.786-3.5157-5.262-5.3925-11.449-5.3925-17.778 0-8.487 3.3714-16.6263 9.3725-22.6274 6.001-6.0012 14.141-9.3726 22.628-9.3726zm127.999 384c-6.329 0-12.515-1.877-17.778-5.393-5.262-3.516-9.364-8.514-11.786-14.361s-3.055-12.282-1.821-18.489c1.235-6.207 4.283-11.909 8.758-16.384 4.475-4.476 10.177-7.523 16.385-8.758 6.207-1.235 12.641-.601 18.488 1.821 5.848 2.422 10.845 6.523 14.362 11.786 3.516 5.262 5.392 11.449 5.392 17.778 0 8.487-3.371 16.626-9.372 22.627-6.001 6.002-14.141 9.373-22.628 9.373zm128.001-320c-6.329 0-12.516-1.877-17.779-5.393-5.262-3.516-9.364-8.514-11.786-14.361s-3.055-12.2815-1.821-18.4889c1.235-6.2074 4.283-11.9093 8.758-16.3845 4.475-4.4753 10.177-7.523 16.385-8.7578 6.207-1.2347 12.641-.601 18.488 1.821 5.848 2.422 10.845 6.5236 14.362 11.7859 3.516 5.2624 5.393 11.4493 5.393 17.7783 0 8.487-3.372 16.626-9.373 22.627-6.001 6.002-14.141 9.373-22.627 9.373z" class="svgShape colorgradient-3 selectable"></path></svg></g></svg>
