<svg xmlns="http://www.w3.org/2000/svg" width="15" height="15" viewBox="0 0 30 30">
  <path d="M24.51 28.51H5.49c-2.21 0-4-1.79-4-4V5.49c0-2.21 1.79-4 4-4h19.03c2.21 0 4 1.79 4 4v19.03c-.01 2.2-1.8 3.99-4.01 3.99z" fill="#2D2D2D" stroke="#FFFFFF" stroke-width="0.6317" stroke-miterlimit="10"/>
  <path d="M15.47 7.1l-1.3 1.85c-.2.29-.54.47-.9.47h-7.1V7.09c-.01.01 9.3.01 9.3.01z" fill="#FFFFFF"/>
  <polygon points="24.3,7.1 13.14,22.91 5.7,22.91 16.86,7.1" fill="#FFFFFF"/>
  <path d="M14.53 22.91l1.31-1.86c.2-.29.54-.47.9-.47h7.09v2.33h-9.3z" fill="#FFFFFF"/>
</svg>
